<svg t="1603087375745" class="icon" viewBox="0 0 1024 1024" version="1.1" xmlns="http://www.w3.org/2000/svg" p-id="3091" width="200" height="200"><path d="M676.565333 883.84c0 18.176-13.098667 32.896-29.226666 32.896h-382.293334c-62.976 0-115.072-53.333333-115.072-120.704V269.44c0-67.413333 52.053333-120.704 115.072-120.704h382.293334c16.128 0 29.226667 14.72 29.226666 32.896 0 18.176-13.098667 32.938667-29.226666 32.938667h-382.293334c-31.829333 0-56.576 25.301333-56.576 54.869333v526.592c0 29.568 24.746667 54.869333 56.576 54.869333h382.293334c16.128 0 29.226667 14.762667 29.226666 32.938667z m191.061334-333.696l-3.2 3.669333-175.530667 175.530667a32.896 32.896 0 0 1-49.749333-42.837333l3.2-3.712 119.296-119.338667h-328.618667c-9.941333 0-18.133333-12.16-19.541333-28.032l-0.213334-4.864c0-16.554667 7.296-30.208 16.810667-32.554667l2.944-0.384h328.661333l-119.338666-119.338666a32.938667 32.938667 0 0 1-3.2-42.88l3.2-3.669334a32.938667 32.938667 0 0 1 42.837333-3.2l3.712 3.2 175.530667 175.530667a32.938667 32.938667 0 0 1 3.2 42.88z" fill="#000000" p-id="3092"></path></svg>