<svg t="1602909565773" class="icon" viewBox="0 0 1024 1024" version="1.1" xmlns="http://www.w3.org/2000/svg" p-id="2161" width="200" height="200"><path d="M173.344 896H352c17.673 0 32 14.327 32 32 0 17.673-14.327 32-32 32H96c-17.673 0-32-14.327-32-32V672c0-17.673 14.327-32 32-32 17.673 0 32 14.327 32 32v178.834l225.207-225.207c12.496-12.496 32.758-12.496 45.255 0 12.496 12.497 12.496 32.758 0 45.255L173.344 896z m677.49-768H672c-17.673 0-32-14.327-32-32 0-17.673 14.327-32 32-32h256c17.673 0 32 14.327 32 32v256c0 17.673-14.327 32-32 32-17.673 0-32-14.327-32-32V173.344L670.882 398.462c-12.497 12.496-32.758 12.496-45.255 0-12.496-12.497-12.496-32.759 0-45.255L850.834 128zM896 850.745V672c0-17.673 14.327-32 32-32 17.673 0 32 14.327 32 32v256c0 17.673-14.327 32-32 32H672c-17.673 0-32-14.327-32-32 0-17.673 14.327-32 32-32h178.745L625.627 670.882c-12.496-12.497-12.496-32.758 0-45.255 12.497-12.496 32.758-12.496 45.255 0L896 850.745z m-768-677.49V352c0 17.673-14.327 32-32 32-17.673 0-32-14.327-32-32V96c0-17.673 14.327-32 32-32h256c17.673 0 32 14.327 32 32 0 17.673-14.327 32-32 32H173.255l225.207 225.207c12.496 12.496 12.496 32.758 0 45.255-12.497 12.496-32.759 12.496-45.255 0L128 173.255z" p-id="2162" fill="#ffffff"></path></svg>